<svg xmlns="http://www.w3.org/2000/svg" xmlns:xlink="http://www.w3.org/1999/xlink" width="1080" zoomAndPan="magnify" viewBox="0 0 810 809.999993" height="1080" preserveAspectRatio="xMidYMid meet" version="1.0"><path fill="#0a66c2" d="M 540 270 L 540 256.5 L 270 256.5 L 270 270 L 256.5 270 L 256.5 540 L 270 540 L 270 553.5 L 540 553.5 L 540 540 L 553.5 540 L 553.5 270 Z M 418.5 405 L 418.5 513 L 378 513 L 378 364.5 L 418.5 364.5 L 418.5 378 L 432 378 L 432 364.5 L 486 364.5 L 486 378 L 499.5 378 L 499.5 513 L 459 513 L 459 405 Z M 297 351 L 297 310.5 L 337.5 310.5 L 337.5 351 Z M 337.5 364.5 L 337.5 513 L 297 513 L 297 364.5 Z M 337.5 364.5 " fill-opacity="1" fill-rule="nonzero"/></svg>