<svg xmlns="http://www.w3.org/2000/svg" xmlns:xlink="http://www.w3.org/1999/xlink" width="200" zoomAndPan="magnify" viewBox="0 0 150 149.999998" height="200" preserveAspectRatio="xMidYMid meet" version="1.0"><path fill="#ff0000" d="M 137.5 43.75 L 137.5 31.25 L 125 31.25 L 125 25 L 25 25 L 25 31.25 L 12.5 31.25 L 12.5 43.75 L 6.25 43.75 L 6.25 106.25 L 12.5 106.25 L 12.5 118.75 L 25 118.75 L 25 125 L 125 125 L 125 118.75 L 137.5 118.75 L 137.5 106.25 L 143.75 106.25 L 143.75 43.75 Z M 75 93.75 L 62.5 93.75 L 62.5 56.25 L 75 56.25 L 75 62.5 L 87.5 62.5 L 87.5 68.75 L 100 68.75 L 100 81.25 L 87.5 81.25 L 87.5 87.5 L 75 87.5 Z M 75 93.75 " fill-opacity="1" fill-rule="nonzero"/></svg>