<svg xmlns="http://www.w3.org/2000/svg" xmlns:xlink="http://www.w3.org/1999/xlink" width="1080" zoomAndPan="magnify" viewBox="0 0 810 809.999993" height="1080" preserveAspectRatio="xMidYMid meet" version="1.0"><path fill="#ff0000" d="M 540 337.5 L 540 310.5 L 513 310.5 L 513 297 L 297 297 L 297 310.5 L 270 310.5 L 270 337.5 L 256.5 337.5 L 256.5 472.5 L 270 472.5 L 270 499.5 L 297 499.5 L 297 513 L 513 513 L 513 499.5 L 540 499.5 L 540 472.5 L 553.5 472.5 L 553.5 337.5 Z M 405 445.5 L 378 445.5 L 378 364.5 L 405 364.5 L 405 378 L 432 378 L 432 391.5 L 459 391.5 L 459 418.5 L 432 418.5 L 432 432 L 405 432 Z M 405 445.5 " fill-opacity="1" fill-rule="nonzero"/></svg>