<svg xmlns="http://www.w3.org/2000/svg" xmlns:xlink="http://www.w3.org/1999/xlink" width="50" zoomAndPan="magnify" viewBox="0 0 37.5 37.499999" height="50" preserveAspectRatio="xMidYMid meet" version="1.0"><defs><clipPath id="a970824aa6"><path d="M 10.363281 10.878906 L 26.644531 10.878906 L 26.644531 26.125 L 10.363281 26.125 Z M 10.363281 10.878906 " clip-rule="nonzero"/></clipPath><clipPath id="995f2afbc6"><path d="M 0.363281 0.878906 L 16.644531 0.878906 L 16.644531 16.125 L 0.363281 16.125 Z M 0.363281 0.878906 " clip-rule="nonzero"/></clipPath><clipPath id="6637c8c436"><rect x="0" width="17" y="0" height="17"/></clipPath></defs><g clip-path="url(#a970824aa6)"><g transform="matrix(1, 0, 0, 1, 10, 10)"><g clip-path="url(#6637c8c436)"><g clip-path="url(#995f2afbc6)"><path fill="#ffffff" d="M 0.363281 0.878906 L 16.621094 0.878906 L 16.621094 16.125 L 0.363281 16.125 Z M 0.363281 0.878906 " fill-opacity="1" fill-rule="nonzero"/></g></g></g></g><path fill="#ff0000" d="M 33.921875 10.792969 L 33.921875 7.710938 L 30.839844 7.710938 L 30.839844 6.167969 L 6.167969 6.167969 L 6.167969 7.710938 L 3.082031 7.710938 L 3.082031 10.792969 L 1.542969 10.792969 L 1.542969 26.214844 L 3.082031 26.214844 L 3.082031 29.296875 L 6.167969 29.296875 L 6.167969 30.839844 L 30.839844 30.839844 L 30.839844 29.296875 L 33.921875 29.296875 L 33.921875 26.214844 L 35.464844 26.214844 L 35.464844 10.792969 Z M 18.503906 23.128906 L 15.417969 23.128906 L 15.417969 13.878906 L 18.503906 13.878906 L 18.503906 15.417969 L 21.585938 15.417969 L 21.585938 16.960938 L 24.671875 16.960938 L 24.671875 20.046875 L 21.585938 20.046875 L 21.585938 21.585938 L 18.503906 21.585938 Z M 18.503906 23.128906 " fill-opacity="1" fill-rule="nonzero"/></svg>